<?xml version="1.0" encoding="UTF-8" standalone="no"?><!DOCTYPE svg PUBLIC "-//W3C//DTD SVG 1.1//EN" "http://www.w3.org/Graphics/SVG/1.1/DTD/svg11.dtd"><svg width="100%" height="100%" viewBox="0 0 5000 5000" version="1.1" xmlns="http://www.w3.org/2000/svg" xmlns:xlink="http://www.w3.org/1999/xlink" xml:space="preserve" xmlns:serif="http://www.serif.com/" style="fill-rule:evenodd;clip-rule:evenodd;stroke-linejoin:round;stroke-miterlimit:2;"><path d="M912.942,1550.438l1591.3,-893.783l1586.879,891.771l0.408,1953.279l-1595.158,889.912l-1587.379,-883.808l3.95,-1957.367l0,-0.004Zm1249.567,-4.417l-617.512,356.733l0,1242.229l614.054,356.788l0,-1160.946l348.213,-190.492l335.442,194.721l5.854,1150.279l623.325,-340.162l0,-1248.083l-621.083,-359.975l-2.554,543.938l-349.213,-203.096l-334.817,201.296l-1.708,-543.229Z" style="fill:#1e1b4b;"/><path d="M2159.05,2340.829l348.213,-190.492l335.442,194.721l-330.504,189.633l-353.154,-193.863l0.004,0Z" style="fill:#3730a3;"/><path d="M910.371,2822.842l2.567,-1272.4l1591.3,-893.783l1586.879,891.771l0.262,1268.883l-619.496,337.871l0,-1248.083l-621.083,-359.975l-2.554,543.938l-349.213,-203.096l-334.817,201.296l-1.708,-543.229l-617.512,356.733l0,1242.229l-634.625,-322.146l0,-0.008Z" style="fill:#3730a3;"/><path d="M1393.076,1921.029l121.541,-69.498" style="fill:none;"/><path d="M912.921,1559.692l0.017,-9.254l1591.3,-893.783l1582.367,889.238l-614.725,361.904l0,-0.7l-621.083,-359.975l-2.554,543.938l-349.213,-203.096l-334.817,201.296l-1.708,-543.229l-617.512,356.733l-632.054,-352.325l-0.017,9.254Z" style="fill:#4f46e5;"/><path d="M2418.258,704.95l85.983,-48.296l85.712,48.171l677.084,1083.538l-416.238,-241.246l-2.554,543.938l-349.213,-203.096l-334.817,201.296l-1.708,-543.229l-409.763,236.721l665.513,-1077.792l0,-0.004Z" style="fill:#473fcf;"/></svg>